<svg width="50" height="50" viewBox="0 0 50 50" fill="none" xmlns="http://www.w3.org/2000/svg">
<circle cx="25" cy="25" r="25" fill="#1C1C1C"/>
<path d="M16.4596 19.5556L25.039 11L33.6184 19.5556L30.4206 22.8222L25.039 17.3778L19.5794 22.8222L16.4596 19.5556Z" fill="#F3BC3D"/>
<path d="M11 25L14.1978 21.8111L17.3955 25L14.1978 28.1889L11 25Z" fill="#F3BC3D"/>
<path d="M21.4513 25L25.039 21.4222L28.5487 25L25.039 28.5778L21.4513 25Z" fill="#F3BC3D"/>
<path d="M35.8022 21.8111L32.6825 25L35.8022 28.1889L39 25L35.8022 21.8111Z" fill="#F3BC3D"/>
<path d="M19.5794 27.1L25.039 32.5444L30.4206 27.1778L33.6184 30.3667L25.039 39L16.3816 30.2889L19.5794 27.1Z" fill="#F3BC3D"/>
</svg>
