<svg width="50" height="50" viewBox="0 0 50 50" fill="none" xmlns="http://www.w3.org/2000/svg">
<path d="M25 50C38.8071 50 50 38.8071 50 25C50 11.1929 38.8071 0 25 0C11.1929 0 0 11.1929 0 25C0 38.8071 11.1929 50 25 50Z" fill="#0088CC"/>
<path fill-rule="evenodd" clip-rule="evenodd" d="M18.0431 16.5216L32.0649 16.5215C32.561 16.5215 33.0567 16.5943 33.5747 16.8359C34.1957 17.1253 34.525 17.5816 34.7557 17.919C34.7736 17.9452 34.7904 17.9723 34.806 18C35.0772 18.4828 35.217 19.0042 35.217 19.565C35.217 20.0978 35.0902 20.6784 34.806 21.1843C34.8033 21.1893 34.8005 21.194 34.7977 21.1988L25.939 36.4162C25.7436 36.7518 25.3841 36.9576 24.9958 36.9563C24.6075 36.955 24.2493 36.7465 24.0564 36.4095L15.3603 21.2246C15.3578 21.2205 15.3553 21.2164 15.3528 21.2122C15.1538 20.8843 14.846 20.3771 14.7922 19.7226C14.7427 19.1208 14.878 18.5177 15.1804 17.9949C15.4828 17.4719 15.9381 17.0539 16.4857 16.798C17.0728 16.5236 17.6678 16.5216 18.0431 16.5216ZM23.9126 18.6954H18.0431C17.6575 18.6954 17.5094 18.7192 17.406 18.7676C17.2628 18.8343 17.1426 18.9443 17.0623 19.0832C16.9819 19.2222 16.9456 19.3833 16.9588 19.5445C16.9664 19.6369 17.0041 19.7426 17.2263 20.1092C17.231 20.1168 17.2355 20.1246 17.24 20.1324L23.9126 31.7841V18.6954ZM26.0866 18.6954V31.8417L32.9138 20.1139C32.9909 19.9739 33.0431 19.7716 33.0431 19.565C33.0431 19.3974 33.0084 19.2518 32.9307 19.1018C32.8492 18.9846 32.7995 18.9226 32.758 18.8801C32.7224 18.8437 32.695 18.8243 32.6562 18.8062C32.4948 18.7309 32.3296 18.6954 32.0649 18.6954H26.0866Z" fill="white"/>
</svg>
